<?xml version="1.0" encoding="UTF-8"?>
<svg xmlns="http://www.w3.org/2000/svg" version="1.1" viewBox="0 0 33 33">
  <defs>
    <style>
      .cls-1 {
        fill: #fff;
      }

      .cls-2 {
        fill: #c92071;
      }
    </style>
  </defs>
  <!-- Generator: Adobe Illustrator 28.7.1, SVG Export Plug-In . SVG Version: 1.2.0 Build 142)  -->
  <g>
    <g id="Camada_1">
      <rect class="cls-1" x="0" width="33" height="33" rx="9.5" ry="9.5"/>
      <path class="cls-2" d="M5,0c-1.2.2-2.3.8-3.2,1.7-.7.7-.9,1.1-1.3,1.9C0,4.7,0,4,0,16.5s0,11.7.4,12.7c.3.7.7,1.4,1.3,2,.8.9,1.7,1.4,2.9,1.7l.6.2h11c7.8,0,11.2,0,11.6,0,1.4-.2,2.6-.7,3.6-1.7.7-.7,1.2-1.4,1.5-2.5l.2-.6V4.9l-.2-.5c-.6-2-2.1-3.5-4.1-4.1l-.6-.2h-11.4C10.5,0,5.2,0,5,0ZM12.3,12.4c2.3,2.2,4.2,4.1,4.2,4.1,0,0-1.9,1.9-4.2,4.1l-4.2,4.1-1.1-1c-.6-.6-1.1-1.1-1.1-1.1,0,0,1.4-1.4,3.1-3,1.7-1.6,3.1-3,3.1-3,0,0-1.4-1.4-3.1-3-1.7-1.6-3.1-3-3.1-3,0,0,2.1-2.1,2.2-2.1,0,0,2,1.8,4.3,4.1ZM27.3,23.4v1.3h-8v-2.5h8v1.3Z"/>
    </g>
  </g>
</svg>